<mxfile host="app.diagrams.net" modified="2020-09-27T12:53:47.756Z" agent="5.0 (Windows NT 10.0; Win64; x64) AppleWebKit/537.36 (KHTML, like Gecko) Chrome/85.0.4183.121 Safari/537.36" etag="jjsUceoM-UEGDh0Vnrod" version="13.7.5" type="github">
  <diagram id="iqS097BehoROeohsyukF" name="Page-1">
    <mxGraphModel dx="1038" dy="580" grid="1" gridSize="10" guides="1" tooltips="1" connect="1" arrows="1" fold="1" page="1" pageScale="1" pageWidth="850" pageHeight="1100" math="0" shadow="0">
      <root>
        <mxCell id="0" />
        <mxCell id="1" parent="0" />
        <mxCell id="tCHSRQCSeNk4hVaGhSzq-1" value="" style="whiteSpace=wrap;html=1;aspect=fixed;" vertex="1" parent="1">
          <mxGeometry x="30" y="140" width="190" height="190" as="geometry" />
        </mxCell>
        <mxCell id="tCHSRQCSeNk4hVaGhSzq-2" value="Web browser" style="shape=image;html=1;verticalAlign=top;verticalLabelPosition=bottom;labelBackgroundColor=#ffffff;imageAspect=0;aspect=fixed;image=https://cdn4.iconfinder.com/data/icons/online-marketing-hand-drawn-vol-4/52/search__web__website__broswer__google__magnify__browsing-128.png" vertex="1" parent="1">
          <mxGeometry x="50" y="160" width="40" height="40" as="geometry" />
        </mxCell>
      </root>
    </mxGraphModel>
  </diagram>
</mxfile>
